# xmcd
#
# Track frame offsets:
#	150
#	20687
#	37415
#	63172
#	75872
#	108355
#
# Disc length: 1653 seconds
#
# Revision: 1
# Processed by: cddbd v1.5.1PL0 Copyright (c) Steve Scherf et al.
# Submitted via: CDex 1.50Beta5
#
DISCID=43067306
DTITLE=無頼庵 - 優しく明るく
DYEAR=1900
DGENRE=Rock
TTITLE0=優しく明るく
TTITLE1=トラベラー
TTITLE2=無地
TTITLE3=やどかりと太陽
TTITLE4=クライ＆スマイル
TTITLE5=ウムウム
EXTD=
EXTT0=
EXTT1=
EXTT2=
EXTT3=
EXTT4=
EXTT5=
PLAYORDER=
